# xmcd
#
# Track frame offsets:
#	150
#	9695
#	23147
#	34143
#	49728
#	66378
#	79667
#	103240
#	128265
#	143507
#	156660
#
# Disc length: 2314 seconds
# Revision: 0
# Processed by: cddbd v1.5.2PL0 Copyright (c) Steve Scherf et al.
# Submitted via: dBpowerAMP V12.0
#
DISCID=8e09080b
DTITLE=RangerDoug,AKADouglasBGreen,GreatLakes,IL,withRidersInTheSky - RangerDougSongsSongsOfTheFrontier
DYEAR=2013
DGENRE=Country
TTITLE0=BlueJuniata,The
TTITLE1=GreenGrowTheLilacs
TTITLE2=OldChisholmTrail,The
TTITLE3=WhenTheRosesBloomAgain
TTITLE4=StrawberryRoan,The
TTITLE5=YellowRoseOfTexas,The
TTITLE6=LittleJoeTheWrangler
TTITLE7=HuntersOfKentucky,The
TTITLE8=MollyDarling
TTITLE9=TyingKnotsInTheDevil'sTail
TTITLE10=Cowboy'sLament,The
EXTD=
EXTT0=
EXTT1=
EXTT2=
EXTT3=
EXTT4=
EXTT5=
EXTT6=
EXTT7=
EXTT8=
EXTT9=
EXTT10=
PLAYORDER=
